<svg width="0" height="0" class="hidden">

	<symbol xmlns="http://www.w3.org/2000/svg" viewBox="0 0 22 22" id="chrome"><path d="M11 1a10 10 0 1 0 0 20 10 10 0 0 0 0-20Zm0 .83a9.17 9.17 0 0 1 8.15 5h-8.23a4.16 4.16 0 0 0-4.06 3.69l-3-5.15A9.15 9.15 0 0 1 11 1.83Zm2.89 10.84a3.33 3.33 0 1 1-5.76-3.35 3.33 3.33 0 0 1 5.76 3.35ZM1.83 11c0-1.75.5-3.47 1.46-4.94l4.1 7 .06.05a4.06 4.06 0 0 0 3.33 2.02 4.1 4.1 0 0 0 1.91-.36L9.8 20v.11A9.17 9.17 0 0 1 1.83 11ZM11 20.17h-.35l4-7.07a4.17 4.17 0 0 0-1.15-5.4h6.06A9.19 9.19 0 0 1 11 20.17Z"/></symbol>
</svg>